<svg width="60" height="80" viewBox="0 0 60 80" fill="none" xmlns="http://www.w3.org/2000/svg">
<rect width="60" height="80" rx="10" fill="#94DC73"/>
<path d="M0 10C0 4.47715 4.47715 0 10 0H11.7073V80H10C4.47715 80 0 75.5228 0 70V10Z" fill="#72A651"/>
<path d="M5.85365 68.3852C5.85365 64.8221 8.74214 61.9336 12.3053 61.9336H57.0732V74.8368H12.3053C8.74214 74.8368 5.85365 71.9483 5.85365 68.3852V68.3852Z" fill="#FCFCFC"/>
<path d="M5.85365 68.3875C5.85365 67.8785 6.26629 67.4658 6.77531 67.4658H57.0732V69.3091H6.77531C6.26629 69.3091 5.85365 68.8965 5.85365 68.3875V68.3875Z" fill="#D9D9D9"/>
<path d="M53.4146 66.9336C53.4146 64.1722 55.6532 61.9336 58.4146 61.9336H59.2683V74.8368H58.4146C55.6532 74.8368 53.4146 72.5982 53.4146 69.8368V66.9336Z" fill="#94DC73"/>
</svg>
